#!OML:ASF H:\Terrain\Patient Classification 1\Terrain2\Thursday\justin.ASF
:FULLY-SPECIFIED
:DEGREES
505
root 8.48252 17.96 29.7129 -3.65804 2.29344 -6.49932
lowerback 5.00016 -0.292446 4.38924
upperback 1.85858 -0.116435 4.88314
thorax -0.887388 -0.0578071 2.57785
lowerneck -16.0837 -3.81166 -9.51642
upperneck 21.4946 -4.18682 5.75155
head 9.80386 -2.07635 3.04653
rclavicle 1.67973e-014 -1.59028e-015
rhumerus -28.5166 -12.3206 -75.3244
rradius 23.9093
rwrist -3.3776
rhand -17.822 12.9879
rfingers 7.12502
rthumb 8.44213 -16.8233
lclavicle 1.67973e-014 -1.59028e-015
lhumerus -34.6865 8.22057 83.7506
lradius 20.5679
lwrist -10.2351
lhand -14.1378 22.1891
lfingers 7.12502
lthumb 11.9962 51.8253
rfemur -7.62377 -5.80322 31.4195
rtibia 23.1129
rfoot -11.0984 5.11166
rtoes 19.0461
lfemur -9.08102 1.32334 -8.82183
ltibia 64.1043
lfoot 3.64744 -8.27964
ltoes 3.22812
506
root 8.47673 17.9579 29.8448 -3.6237 1.93852 -6.03242
lowerback 5.23785 -0.128204 3.84293
upperback 1.75856 0.0977388 4.7561
thorax -1.1276 0.0458724 2.74051
lowerneck -15.9484 -3.81444 -9.52117
upperneck 21.6111 -4.22518 5.82434
head 9.82453 -2.08966 3.07077
rclavicle -2.33572e-015 1.98785e-014
rhumerus -28.3144 -11.9653 -75.4721
rradius 24.6028
rwrist -3.52383
rhand -17.8515 12.873
rfingers 7.12502
rthumb 8.41369 -16.9394
lclavicle -2.33572e-015 1.98785e-014
lhumerus -35.1642 9.03723 83.229
lradius 20.5495
lwrist -11.4009
lhand -12.2593 22.7525
lfingers 7.12502
lthumb 13.8071 52.2743
rfemur -6.94919 -5.74622 30.9367
rtibia 22.8751
rfoot -11.3533 5.34434
rtoes 18.505
lfemur -10.1976 1.78858 -9.34299
ltibia 64.7516
lfoot 2.43546 -7.31367
ltoes 1.63327
507
root 8.48357 17.9768 29.9735 -3.22534 1.8994 -4.91006
lowerback 5.0391 -0.0126363 2.89751
upperback 1.62903 0.192411 4.34356
thorax -1.15463 0.092655 2.83611
lowerneck -15.7748 -3.87321 -9.51667
upperneck 21.5686 -4.3492 5.92403
head 9.78954 -2.13788 3.08935
rclavicle 5.14355e-015 1.43125e-014
rhumerus -27.9985 -11.6653 -75.7258
rradius 25.2965
rwrist -3.59456
rhand -18.0342 11.953
rfingers 7.12502
rthumb 8.23734 -17.8664
lclavicle 5.14355e-015 1.43125e-014
lhumerus -35.5822 9.33756 82.9643
lradius 20.8504
lwrist -11.3181
lhand -11.8515 22.7427
lfingers 7.12502
lthumb 14.2001 52.2373
rfemur -6.77857 -6.27679 29.6056
rtibia 22.8775
rfoot -11.649 6.16645
rtoes 19.9526
lfemur -11.7213 1.80761 -10.8338
ltibia 65.0913
lfoot 1.13324 -6.12263
ltoes 0.898188
508
root 8.45938 17.9709 30.1124 -3.52211 1.07101 -6.1289
lowerback 5.31871 0.244836 3.92314
upperback 1.73186 0.60472 4.69179
thorax -1.20868 0.298375 2.59715
lowerneck -15.6188 -3.91947 -9.39558
upperneck 21.6406 -4.4153 5.72636
head 9.78429 -2.18363 2.99223
rclavicle 1.43373e-014 5.24792e-014
rhumerus -27.5163 -11.661 -75.8
rradius 25.4917
rwrist -3.60364
rhand -17.8291 11.5612
rfingers 7.12502
rthumb 8.4353 -18.2503
lclavicle 1.43373e-014 5.24792e-014
lhumerus -36.0735 8.97959 83.1763
lradius 21.1169
lwrist -9.99767
lhand -13.5959 22.1474
lfingers 7.12502
lthumb 12.5187 51.7524
rfemur -5.91094 -5.00402 31.1502
rtibia 22.8978
rfoot -12.0151 5.50714
rtoes 21.3231
lfemur -12.5205 2.65145 -9.12022
ltibia 65.4519
lfoot -0.396214 -5.88005
ltoes 1.25995
509
root 8.45494 17.9587 30.2501 -3.58004 0.622354 -6.16341
lowerback 5.26092 0.435613 4.01664
upperback 1.8431 0.851423 4.65383
thorax -1.06368 0.423317 2.49067
lowerneck -15.7365 -4.02502 -9.43772
upperneck 21.915 -4.55404 5.73996
head 9.91757 -2.25038 2.98746
rclavicle -9.39258e-015 -1.43125e-014
rhumerus -26.7886 -11.7774 -75.8376
rradius 25.5077
rwrist -3.19932
rhand -17.392 11.034
rfingers 7.12502
rthumb 8.85712 -18.7601
lclavicle -9.39258e-015 -1.43125e-014
lhumerus -36.3722 8.63882 83.3869
lradius 21.2124
lwrist -9.29758
lhand -14.0428 22.1388
lfingers 7.12502
lthumb 12.0878 51.7696
rfemur -5.30319 -4.97369 31.2299
rtibia 22.9364
rfoot -12.4226 5.63959
rtoes 20.9296
lfemur -13.4434 3.14593 -9.03352
ltibia 65.6267
lfoot -1.88087 -5.47781
ltoes 0.51642
510
root 8.45405 17.9422 30.3784 -3.52911 0.325144 -6.01602
lowerback 5.23841 0.588736 3.99354
upperback 1.90262 1.04643 4.50783
thorax -0.990253 0.521793 2.34076
lowerneck -15.5601 -3.92555 -9.32337
upperneck 21.798 -4.50196 5.9214
head 9.83827 -2.19808 3.0405
rclavicle 1.53561e-014 2.06736e-014
rhumerus -26.215 -11.4545 -76.0941
rradius 25.9572
rwrist -2.97246
rhand -17.2161 10.398
rfingers 7.12502
rthumb 9.02686 -19.3889
lclavicle 1.53561e-014 2.06736e-014
lhumerus -36.6774 8.23445 83.529
lradius 21.6156
lwrist -8.629
lhand -13.3769 22.8143
lfingers 7.12502
lthumb 12.7298 52.4063
rfemur -4.83258 -4.91476 31.1234
rtibia 22.8985
rfoot -12.7528 5.60965
rtoes 20.1367
lfemur -14.5654 3.52914 -9.23373
ltibia 65.7064
lfoot -3.26044 -4.94444
ltoes -0.561557
511
root 8.45672 17.9267 30.5062 -3.42179 -0.0672972 -6.37797
lowerback 5.47581 0.684185 4.43692
upperback 1.72265 1.22592 4.55452
thorax -1.30193 0.607312 2.12643
lowerneck -15.3598 -3.91531 -9.14581
upperneck 21.864 -4.5213 5.78058
head 9.81755 -2.21188 2.96096
rclavicle -2.94698e-014 -5.725e-014
rhumerus -25.9208 -10.5721 -76.3815
rradius 26.1331
rwrist -3.79145
rhand -17.6811 11.3445
rfingers 7.12502
rthumb 8.57808 -18.4613
lclavicle -2.94698e-014 -5.725e-014
lhumerus -37.3761 8.07274 83.5616
lradius 22.1977
lwrist -7.20251
lhand -12.9158 23.3991
lfingers 7.12502
lthumb 13.1744 52.9629
rfemur -4.61797 -4.79428 31.5618
rtibia 23.2064
rfoot -13.2461 5.64266
rtoes 19.7864
lfemur -15.7489 4.01094 -8.84533
ltibia 65.6412
lfoot -4.56672 -4.46725
ltoes -2.16807
512
root 8.46205 17.9068 30.6379 -3.32116 -0.424251 -6.6781
lowerback 5.29824 0.796457 4.96854
upperback 1.8427 1.37962 4.51609
thorax -1.06528 0.687977 1.78405
lowerneck -15.4967 -3.99698 -9.21107
upperneck 21.9069 -4.63595 5.89526
head 9.87287 -2.25563 2.99612
rclavicle 1.0461e-014 1.90833e-014
rhumerus -25.2027 -9.96714 -76.7327
rradius 26.3465
rwrist -4.50068
rhand -17.7144 11.4203
rfingers 7.12502
rthumb 8.54601 -18.3868
lclavicle 1.0461e-014 1.90833e-014
lhumerus -37.467 7.92751 83.6154
lradius 22.5095
lwrist -5.82047
lhand -12.9115 23.3741
lfingers 7.12502
lthumb 13.1785 52.9376
rfemur -4.4527 -5.06251 31.8333
rtibia 23.6869
rfoot -13.802 6.07809
rtoes 19.8415
lfemur -16.809 4.46545 -8.56402
ltibia 65.4163
lfoot -5.85072 -4.00613
ltoes -4.01479
513
root 8.46447 17.8855 30.7685 -3.2739 -0.792899 -6.64564
lowerback 5.35038 0.952339 5.16925
upperback 1.84789 1.59814 4.33964
thorax -1.07712 0.797197 1.47573
lowerneck -15.4817 -4.04685 -9.33812
upperneck 22.0057 -4.77075 6.26654
head 9.92882 -2.28803 3.13278
rclavicle 1.00138e-014 -2.62396e-014
rhumerus -24.8618 -9.58597 -77.0254
rradius 27.0349
rwrist -4.58246
rhand -17.1086 10.2616
rfingers 7.12502
rthumb 9.1306 -19.5208
lclavicle 1.00138e-014 -2.62396e-014
lhumerus -37.687 7.4983 83.6272
lradius 22.688
lwrist -5.01865
lhand -13.3198 22.6887
lfingers 7.12502
lthumb 12.7849 52.2772
rfemur -4.16914 -4.92313 31.7803
rtibia 24.0839
rfoot -14.2443 6.13602
rtoes 20.3949
lfemur -17.7309 4.81702 -8.68814
ltibia 64.9994
lfoot -7.05419 -3.45622
ltoes -4.32452
514
root 8.46615 17.8663 30.8948 -3.23775 -1.1413 -6.49129
lowerback 5.30305 1.12014 5.20809
upperback 1.99299 1.80684 4.17481
thorax -0.891707 0.905936 1.27429
lowerneck -15.7103 -4.16537 -9.40154
upperneck 22.136 -4.95216 6.45664
head 10.0415 -2.35246 3.18582
rclavicle 5.11871e-015 -1.11319e-014
rhumerus -24.2527 -9.24954 -77.3076
rradius 27.5814
rwrist -5.13056
rhand -17.2084 10.6957
rfingers 7.12502
rthumb 9.03422 -19.0908
lclavicle 5.11871e-015 -1.11319e-014
lhumerus -37.7286 7.29422 83.6438
lradius 22.9432
lwrist -4.67087
lhand -13.4266 22.3123
lfingers 7.12502
lthumb 12.6819 51.9072
rfemur -3.84867 -4.48563 31.6635
rtibia 24.3505
rfoot -14.7728 5.92172
rtoes 19.5716
lfemur -18.6634 5.1349 -8.94716
ltibia 64.3835
lfoot -7.87613 -3.02127
ltoes -6.05121
515
root 8.46664 17.8506 31.017 -3.28397 -1.46744 -6.74436
lowerback 5.48006 1.22131 5.54034
upperback 2.08762 1.96697 4.2124
thorax -0.879629 0.987512 1.11673
lowerneck -15.9523 -4.26812 -9.60445
upperneck 22.4164 -5.04733 6.52013
head 10.205 -2.40371 3.23099
rclavicle 2.20154e-014 3.97569e-014
rhumerus -23.6534 -8.60455 -77.547
rradius 27.9206
rwrist -6.08258
rhand -17.7105 11.6712
rfingers 7.12502
rthumb 8.54974 -18.1357
lclavicle 2.20154e-014 3.97569e-014
lhumerus -37.946 7.49504 83.6518
lradius 23.219
lwrist -4.45435
lhand -13.1443 22.4572
lfingers 7.12502
lthumb 12.9541 52.035
rfemur -3.4606 -4.08791 31.983
rtibia 24.6064
rfoot -15.2608 5.83017
rtoes 18.9387
lfemur -19.5585 5.33117 -8.68025
ltibia 63.6227
lfoot -8.4175 -2.81258
ltoes -6.20221
